<svg t="1694684953453" class="icon" viewBox="0 0 1024 1024" version="1.1" xmlns="http://www.w3.org/2000/svg" p-id="5414" width="24" height="24"><path d="M832 403.2c-6.4-172.8-147.2-307.2-320-307.2S198.4 230.4 192 396.8C89.6 435.2 19.2 537.6 25.6 659.2c6.4 102.4 76.8 192 172.8 224 51.2 19.2 569.6 19.2 614.4 0 96-32 166.4-121.6 172.8-224 19.2-115.2-51.2-217.6-153.6-256zM512 230.4c102.4 0 185.6 57.6 224 140.8 0 6.4 0 12.8-6.4 12.8s-6.4 0-6.4-6.4c-38.4-76.8-115.2-128-211.2-128-96 0-172.8 51.2-211.2 134.4h-6.4c-6.4 0-12.8-6.4-6.4-12.8 38.4-83.2 128-140.8 224-140.8z m0 76.8c-70.4 0-134.4 44.8-160 108.8 0 6.4-6.4 6.4-6.4 6.4-6.4 0-12.8-6.4-6.4-12.8 25.6-70.4 89.6-121.6 172.8-121.6 76.8 0 147.2 51.2 172.8 121.6 0 6.4 0 12.8-6.4 12.8s-6.4 0-6.4-6.4c-25.6-64-89.6-108.8-160-108.8z m83.2 96v140.8h-32V403.2c-6.4-12.8 6.4-19.2 12.8-19.2 12.8 0 19.2 6.4 19.2 19.2z m-128 0v140.8h-32V403.2c0-12.8 6.4-19.2 12.8-19.2h6.4c6.4 0 12.8 6.4 12.8 19.2z m339.2 281.6c0 51.2-38.4 89.6-89.6 89.6h-384c-51.2 0-89.6-38.4-89.6-89.6v-12.8h563.2v12.8z m-563.2-25.6s108.8-89.6 121.6-96h320l121.6 96H243.2z" fill="#5B8FD9" p-id="5415"></path><path d="M300.8 723.2m-19.2 0a19.2 19.2 0 1 0 38.4 0 19.2 19.2 0 1 0-38.4 0Z" fill="#5B8FD9" p-id="5416"></path><path d="M627.2 723.2m-19.2 0a19.2 19.2 0 1 0 38.4 0 19.2 19.2 0 1 0-38.4 0Z" fill="#FE6D68" p-id="5417"></path><path d="M672 723.2m-19.2 0a19.2 19.2 0 1 0 38.4 0 19.2 19.2 0 1 0-38.4 0Z" fill="#F9D65D" p-id="5418"></path><path d="M723.2 723.2m-19.2 0a19.2 19.2 0 1 0 38.4 0 19.2 19.2 0 1 0-38.4 0Z" fill="#68D279" p-id="5419"></path></svg>