<svg t="1695198923813" class="icon" viewBox="0 0 1024 1024" version="1.1" xmlns="http://www.w3.org/2000/svg" p-id="15949" width="12" height="12"><path d="M856.92 127.83c-5.08 0-10.16 1.17-15.24 3.13L151.8 420.42c-30.86 12.89-32.04 55.86-2.35 71.1L369 601.29c-9.38 15.24-7.43 35.16 5.46 48.05 7.42 7.81 17.58 11.72 27.73 11.72 7.04 0 14.46-1.96 20.71-6.25l109.78 219.54c7.03 14.45 21.1 21.49 34.76 21.49 14.85 0 29.3-7.81 35.95-23.83l289.47-689.88c11.33-26.96-9.77-54.3-35.94-54.3z m-292.6 635.58L481.5 597.39l42.58-42.19c15.23-15.24 15.23-39.85 0-55.08-7.81-7.81-17.58-11.72-27.74-11.72-10.15 0-19.92 3.91-27.73 11.72l-42.19 42.19-165.64-82.82 523.08-219.54-219.54 523.46z" fill="#1A1A1A" p-id="15950"></path></svg>