<svg t="1694683770089" class="icon" viewBox="0 0 1050 1024" version="1.1" xmlns="http://www.w3.org/2000/svg" p-id="6564" width="24" height="24"><path d="M525.419651 0.635405c-9.260636 0-36.436021 9.654482-36.43602 9.654482L125.366482 185.393887s-17.050913 8.945559-21.167918 14.115446c-4.122256 5.167262-8.213005 21.66679-8.213005 21.66679L3.492103 626.504205l-2.78318 12.224985s-2.305313 9.864533 1.444103 17.339733l5.24603 10.494687 7.320288 11.332267 264.953435 329.591467s7.869046 10.492062 13.115077 13.115077c5.248656 5.246031 23.767303 2.625641 23.767303 2.625641H734.208s20.986749 1.073887 26.442831-2.625641c7.869046-5.246031 16.683323-18.363733 16.683323-18.363734L1029.172513 686.395077s17.392246-21.774441 19.490133-30.588718c2.625641-21.144287-4.353313-42.811077-4.353313-42.811077L957.870605 234.293826s-4.537108-25.917703-9.575713-32.820513c-5.035979-6.897559-26.834051-18.046031-26.834051-18.046031L564.26601 11.447795S535.362954 0.8192 525.422277 0.635405z" fill="#b3b3b3" p-id="6565" data-spm-anchor-id="a313x.search_index.0.i1.f8d73a81ljGgHI" class="selected"></path><path d="M887.802749 592.110933c-19.177682-4.382195-22.69079-0.840205-48.479836-5.692389-9.129354-1.706667-23.032123-5.246031-33.471672-18.363734h-0.236308c1.567508-12.177723 2.3552-24.444718 2.360452-36.724841a282.004349 282.004349 0 0 0-46.248041-155.377559l0.446359-0.315077a71.669497 71.669497 0 0 1 22.191918-31.00882c21.118031-15.556923 25.812677-13.876513 41.212061-26.230154 11.883651-9.499569 15.740718-24.531364 8.446687-33.581949-7.291405-9.047959-22.743303-8.732882-34.626954 0.761436-15.373128 12.277497-14.795487 17.234708-34.679466 34.367016-7.00521 6.059979-18.363733 14.716718-35.257108 14.690461l-0.36759 0.341333a282.503221 282.503221 0 0 0-178.202256-85.887343v-1.207795a71.932062 71.932062 0 0 1-10.492062-36.724841c0.997744-26.232779 5.246031-28.855795 5.246031-48.532349 0-15.21559-9.391918-27.542974-20.986749-27.542974s-20.984123 12.327385-20.984123 27.542974c0 19.673928 4.248287 22.325826 5.246031 48.532349 0.36759 9.25801 0 23.609764-10.494687 36.724841v1.207795a282.713272 282.713272 0 0 0-179.719877 87.512615 71.538215 71.538215 0 0 1-33.50318-14.375384c-19.881354-17.155938-19.280082-22.089518-34.676841-34.36439-11.883651-9.470687-27.385436-9.838277-34.600697-0.761436-7.215262 9.076841-3.43959 24.161149 8.446687 33.760492 15.370503 12.277497 20.094031 10.494687 41.212062 26.23278 7.212636 5.248656 17.707323 14.141703 21.771815 29.538461a281.873067 281.873067 0 0 0-46.011733 154.776287c0.007877 12.863015 0.884841 25.710277 2.623015 38.457765a71.275651 71.275651 0 0 1-31.638974 16.788348c-25.783795 4.852185-29.302154 1.312821-48.47721 5.666134-14.848 3.200656-24.814933 15.084308-22.191918 26.387692 2.623015 11.308636 16.709579 17.709949 31.481436 14.325497 19.175056-4.379569 20.800328-9.103097 46.140389-15.898256 8.472944-2.281682 21.459364-4.930954 35.624698 0.918974a284.154749 284.154749 0 0 0 123.504902 155.850175l-1.417846 2.625641a71.984574 71.984574 0 0 1-6.477456 37.641189c-12.303754 23.189662-17.260964 23.609764-25.786421 41.44837-6.585108 13.695344-3.492103 28.855795 6.950072 33.920656 10.442174 5.062236 24.266174-1.995487 30.877538-15.740718 8.525456-17.733579 5.849928-21.929354 16.315734-46.011733 3.699528-8.4992 10.258379-21.249313 25.3952-28.514462l1.207795-2.756923a284.128492 284.128492 0 0 0 201.833025-1.339077 70.829292 70.829292 0 0 1 21.301826 25.605252c10.494687 24.082379 7.871672 28.278154 16.318359 46.011733 6.608738 13.695344 20.435364 20.724185 30.877538 15.740718 10.439549-4.983467 13.535179-20.225313 6.950072-33.918031-8.551713-17.733579-13.511549-18.363733-25.78642-41.448369a54.458421 54.458421 0 0 1-7.346544-32.636718 284.102236 284.102236 0 0 0 124.397621-155.506216h0.131282a71.669497 71.669497 0 0 1 38.142687-2.074256c25.340062 6.821415 26.965333 11.544944 46.143015 15.898256 14.821744 3.384451 28.855795-3.016862 31.481436-14.322871 2.62039-11.30601-7.294031-23.058379-22.115774-26.416575z m-203.959795-220.777025c-39.980636 30.431179-84.865969 60.914872-108.475733 71.013087a105.298708 105.298708 0 0 0-12.224985-5.954954c-5.246031-20.1728-10.28201-77.020554-11.988677-129.197292a224.9728 224.9728 0 0 1 132.686769 64.139159z m-142.577559 125.287713l21.456738 25.68402-6.582482 32.922913-29.827282 15.186708-30.509948-13.824-8.184124-32.450298 20.277826-26.650256 33.369272-0.866462z m-42.682421-189.584411c-1.181538 50.603979-5.429826 104.931118-12.353641 129.249805a99.895138 99.895138 0 0 0-14.036677 7.08398c-21.272944-10.494687-67.261046-41.238318-107.422851-71.301908a224.867774 224.867774 0 0 1 133.813169-64.926851v-0.105026z m-199.527712 224.161477a224.584205 224.584205 0 0 1 33.264246-118.04882c38.352738 31.951426 78.120697 68.860062 93.913928 90.03323a103.594667 103.594667 0 0 0-2.625641 12.484924c-21.509251 10.153354-74.499938 26.965333-123.134687 39.636676-0.892718-8.005579-1.365333-16.050544-1.417846-24.10601z m104.22482 190.135795a226.075569 226.075569 0 0 1-91.293538-114.819282c48.138503-9.972185 101.181703-18.025026 128.254687-17.526154a98.267241 98.267241 0 0 0 7.869046 10.127098c-2.596759 18.177313-23.137149 72.927179-44.830195 122.218338z m121.378133 35.467159a225.602954 225.602954 0 0 1-73.97481-12.461292c23.609764-45.932964 51.389046-93.625108 67.786174-111.043611 2.045374 0.131282 4.117005 0.210051 6.188636 0.210052 3.308308 0 6.585108-0.157538 9.838277-0.472616 15.320615 20.435364 42.837333 67.497354 65.294441 110.912329a225.602954 225.602954 0 0 1-75.132718 12.855138z m122.063426-35.913518c-20.304082-44.360205-40.006892-94.097723-46.011733-121.275733a102.308103 102.308103 0 0 0 8.236636-10.492062c21.981867-0.36759 77.910646 7.448944 128.4096 17.287221a226.233108 226.233108 0 0 1-90.637129 114.480574z m102.308103-165.659569c-48.766031-12.277497-100.709087-28.409436-123.294852-40.558277a100.866626 100.866626 0 0 0-2.80681-12.301128c12.933908-17.106051 54.172226-56.243856 93.677621-89.875693a224.481805 224.481805 0 0 1 33.658092 118.705231 227.128451 227.128451 0 0 1-1.286564 24.029867h0.052513z" fill="#F2F2F2" p-id="6566"></path></svg>